<svg xmlns="http://www.w3.org/2000/svg" xmlns:xlink="http://www.w3.org/1999/xlink" width="500" zoomAndPan="magnify" viewBox="0 0 375 374.999991" height="500" preserveAspectRatio="xMidYMid meet" version="1.0"><defs><g/></defs><g fill="#000000" fill-opacity="1"><g transform="translate(69.43705, 208.389039)"><g><path d="M 17.320312 -4.441406 L 17.257812 -4.441406 C 16.269531 -4.441406 15.699219 -1.230469 13.988281 -1.230469 L 3.84375 -1.230469 L 16.507812 -19.628906 C 16.75 -19.988281 16.957031 -20.289062 16.957031 -20.5 L 16.957031 -20.769531 C 16.957031 -21.070312 16.6875 -21.3125 16.386719 -21.3125 L 2.402344 -21.3125 C 1.921875 -21.3125 1.742188 -21.070312 1.652344 -20.648438 L 0.839844 -17.707031 C 0.75 -17.230469 0.929688 -16.988281 1.289062 -16.988281 L 1.410156 -16.988281 C 2.460938 -16.988281 2.972656 -20.078125 4.351562 -20.078125 L 13.777344 -20.078125 L 1.050781 -1.53125 C 0.871094 -1.261719 0.660156 -0.992188 0.660156 -0.71875 L 0.660156 -0.539062 C 0.660156 -0.238281 0.929688 0 1.261719 0 L 16.238281 0 C 16.566406 0 16.839844 -0.269531 16.957031 -0.628906 L 17.800781 -3.84375 C 17.890625 -4.230469 17.679688 -4.441406 17.320312 -4.441406 Z M 17.320312 -4.441406 "/></g></g></g><g fill="#000000" fill-opacity="1"><g transform="translate(96.230492, 208.37707)"><g><path d="M 0.808594 0 L 3.660156 0 C 4.050781 0 4.292969 -0.121094 4.292969 -0.359375 L 4.292969 -0.421875 C 4.292969 -0.992188 2.851562 -1.050781 3.273438 -2.101562 L 4.621094 -5.644531 L 14.289062 -5.644531 L 15.757812 -2.101562 C 16.179688 -1.050781 14.738281 -0.992188 14.738281 -0.421875 L 14.738281 -0.359375 C 14.738281 -0.121094 14.976562 0 15.335938 0 L 19.390625 0 C 19.75 0 19.988281 -0.121094 19.988281 -0.359375 L 19.988281 -0.421875 C 19.988281 -0.992188 19 -0.992188 18.550781 -2.101562 L 11.136719 -19.179688 C 10.773438 -20.078125 12.125 -20.351562 12.125 -20.890625 L 12.125 -20.949219 C 12.125 -21.191406 11.914062 -21.3125 11.644531 -21.3125 L 7.804688 -21.3125 C 7.503906 -21.3125 7.292969 -21.191406 7.292969 -20.949219 L 7.292969 -20.890625 C 7.292969 -20.351562 8.613281 -19.960938 8.285156 -19.121094 L 1.621094 -2.101562 C 1.199219 -0.960938 0.210938 -0.992188 0.210938 -0.421875 L 0.210938 -0.359375 C 0.210938 -0.121094 0.421875 0 0.808594 0 Z M 5.101562 -6.933594 L 9.273438 -17.949219 L 13.835938 -6.933594 Z M 5.101562 -6.933594 "/></g></g></g><g fill="#000000" fill-opacity="1"><g transform="translate(123.333073, 208.37707)"><g><path d="M 2.402344 0 L 6.152344 0 C 6.511719 0 6.753906 -0.148438 6.753906 -0.390625 L 6.753906 -0.449219 C 6.753906 -0.960938 5.582031 -1.019531 5.582031 -2.101562 L 5.582031 -7.234375 L 8.675781 -7.234375 C 14.167969 -7.234375 17.4375 -9.785156 17.4375 -14.378906 C 17.4375 -19.359375 12.996094 -21.3125 7.984375 -21.3125 L 2.402344 -21.3125 C 2.011719 -21.3125 1.769531 -21.191406 1.769531 -20.949219 L 1.769531 -20.859375 C 1.769531 -20.320312 2.882812 -20.199219 2.882812 -19.210938 L 2.882812 -2.101562 C 2.882812 -1.019531 1.769531 -0.960938 1.769531 -0.449219 L 1.769531 -0.390625 C 1.769531 -0.148438 2.011719 0 2.402344 0 Z M 6.664062 -8.464844 C 5.941406 -8.464844 5.582031 -8.855469 5.582031 -9.542969 L 5.582031 -19.121094 C 5.582031 -19.75 5.824219 -20.078125 6.363281 -20.078125 L 7.984375 -20.078125 C 11.4375 -20.078125 14.648438 -18.097656 14.648438 -13.71875 C 14.648438 -10.414062 12.335938 -8.464844 8.675781 -8.464844 Z M 6.664062 -8.464844 "/></g></g></g><g fill="#000000" fill-opacity="1"><g transform="translate(145.781011, 208.37707)"><g><path d="M 11.105469 0.300781 C 16.089844 0.300781 18.910156 -3.152344 19.570312 -6.691406 C 19.75 -7.5625 18.820312 -7.683594 18.460938 -7.082031 C 17.527344 -4.863281 15.457031 -2.101562 11.855469 -2.101562 C 7.625 -2.101562 3.691406 -6.304688 3.691406 -12.367188 C 3.691406 -17.109375 6.785156 -20.351562 10.265625 -20.351562 C 15.757812 -20.351562 15.578125 -14.738281 17.828125 -14.738281 C 18.667969 -14.738281 19.148438 -15.246094 19.148438 -16.027344 C 19.148438 -18.1875 15.699219 -21.582031 10.957031 -21.582031 C 5.191406 -21.582031 0.992188 -17.167969 0.992188 -10.867188 C 0.992188 -4.921875 5.824219 0.300781 11.105469 0.300781 Z M 11.105469 0.300781 "/></g></g></g><g fill="#000000" fill-opacity="1"><g transform="translate(173.859763, 208.389039)"><g><path d="M 1.800781 -0.359375 C 1.800781 -0.121094 2.042969 0 2.402344 0 L 6.152344 0 C 6.511719 0 6.753906 -0.121094 6.753906 -0.359375 L 6.753906 -0.421875 C 6.753906 -0.960938 5.613281 -0.992188 5.613281 -2.070312 L 5.613281 -19.210938 C 5.613281 -20.289062 6.753906 -20.320312 6.753906 -20.890625 L 6.753906 -20.949219 C 6.753906 -21.191406 6.511719 -21.3125 6.152344 -21.3125 L 2.402344 -21.3125 C 2.042969 -21.3125 1.800781 -21.191406 1.800781 -20.949219 L 1.800781 -20.890625 C 1.800781 -20.320312 2.882812 -20.289062 2.882812 -19.210938 L 2.882812 -2.070312 C 2.882812 -0.992188 1.800781 -0.960938 1.800781 -0.421875 Z M 1.800781 -0.359375 "/></g></g></g><g fill="#000000" fill-opacity="1"><g transform="translate(187.499992, 208.389039)"><g><path d="M 11.105469 0.300781 C 16.089844 0.300781 18.910156 -3.152344 19.570312 -6.691406 C 19.75 -7.5625 18.820312 -7.683594 18.460938 -7.082031 C 17.527344 -4.863281 15.457031 -2.101562 11.855469 -2.101562 C 7.625 -2.101562 3.691406 -6.304688 3.691406 -12.367188 C 3.691406 -17.109375 6.785156 -20.351562 10.265625 -20.351562 C 15.757812 -20.351562 15.578125 -14.738281 17.828125 -14.738281 C 18.667969 -14.738281 19.148438 -15.246094 19.148438 -16.027344 C 19.148438 -18.1875 15.699219 -21.582031 10.957031 -21.582031 C 5.191406 -21.582031 0.992188 -17.167969 0.992188 -10.867188 C 0.992188 -4.921875 5.824219 0.300781 11.105469 0.300781 Z M 11.105469 0.300781 "/></g></g></g><g fill="#000000" fill-opacity="1"><g transform="translate(69.087794, 178.861205)"><g><path d="M 19.261719 -2.488281 C 19.109375 -5.96875 16.679688 -11.28125 12.210938 -14.128906 L 17.25 -19.109375 C 18.238281 -20.101562 19.261719 -20.308594 19.261719 -20.851562 L 19.261719 -20.941406 C 19.261719 -21.179688 19.050781 -21.300781 18.660156 -21.300781 L 15.539062 -21.300781 C 15.179688 -21.300781 14.941406 -21.179688 14.941406 -20.941406 L 14.941406 -20.851562 C 14.941406 -20.308594 16.351562 -20.070312 15.390625 -19.109375 L 5.609375 -9.421875 L 5.609375 -19.199219 C 5.609375 -20.25 6.78125 -20.308594 6.78125 -20.851562 L 6.78125 -20.941406 C 6.78125 -21.179688 6.511719 -21.300781 6.148438 -21.300781 L 2.398438 -21.300781 C 2.039062 -21.300781 1.800781 -21.179688 1.800781 -20.941406 L 1.800781 -20.851562 C 1.800781 -20.308594 2.878906 -20.25 2.878906 -19.199219 L 2.878906 -2.128906 C 2.878906 -1.078125 1.800781 -0.960938 1.800781 -0.421875 L 1.800781 -0.359375 C 1.800781 -0.121094 2.039062 0 2.398438 0 L 6.148438 0 C 6.511719 0 6.78125 -0.121094 6.78125 -0.359375 L 6.78125 -0.421875 C 6.78125 -0.960938 5.609375 -1.078125 5.609375 -2.128906 L 5.609375 -7.589844 L 10.441406 -12.359375 C 14.160156 -10.050781 16.441406 -5.308594 16.441406 -2.128906 C 16.46875 -1.019531 15.328125 -0.929688 15.328125 -0.421875 L 15.328125 -0.359375 C 15.328125 -0.121094 15.570312 0 15.960938 0 L 20.101562 0 C 20.460938 0 20.699219 -0.121094 20.699219 -0.359375 L 20.699219 -0.421875 C 20.699219 -0.929688 19.378906 -1.261719 19.261719 -2.488281 Z M 19.261719 -2.488281 "/></g></g></g><g fill="#000000" fill-opacity="1"><g transform="translate(107.736229, 178.861205)"><g/></g></g><g fill="#000000" fill-opacity="1"><g transform="translate(96.230492, 178.861205)"><g><path d="M 18.929688 -21.300781 L 15.988281 -21.300781 C 15.628906 -21.300781 15.449219 -21.179688 15.449219 -20.941406 L 15.449219 -20.878906 C 15.449219 -20.308594 17.101562 -20.28125 16.46875 -19.199219 L 10.621094 -9.570312 L 4.769531 -19.199219 C 4.199219 -20.191406 5.699219 -20.308594 5.699219 -20.878906 L 5.699219 -20.941406 C 5.699219 -21.179688 5.488281 -21.300781 5.101562 -21.300781 L 0.71875 -21.300781 C 0.359375 -21.300781 0.121094 -21.179688 0.121094 -20.941406 L 0.121094 -20.878906 C 0.121094 -20.308594 1.109375 -20.25 1.769531 -19.199219 L 8.730469 -8.429688 L 8.730469 -2.101562 C 8.730469 -1.019531 7.648438 -0.988281 7.648438 -0.421875 L 7.648438 -0.359375 C 7.648438 -0.121094 7.859375 0 8.25 0 L 12.03125 0 C 12.390625 0 12.601562 -0.121094 12.601562 -0.359375 L 12.601562 -0.421875 C 12.601562 -0.988281 11.460938 -1.019531 11.460938 -2.101562 L 11.460938 -8.609375 L 17.941406 -19.199219 C 18.628906 -20.398438 19.53125 -20.308594 19.53125 -20.878906 L 19.53125 -20.96875 C 19.53125 -21.179688 19.320312 -21.300781 18.929688 -21.300781 Z M 18.929688 -21.300781 "/></g></g></g><g fill="#000000" fill-opacity="1"><g transform="translate(123.333073, 178.861205)"><g><path d="M 2.398438 0 L 15.449219 0 C 15.898438 0 16.109375 -0.238281 16.199219 -0.691406 L 16.949219 -3.988281 C 17.039062 -4.351562 16.890625 -4.53125 16.621094 -4.53125 L 16.378906 -4.53125 C 15.328125 -4.53125 14.96875 -1.230469 13.230469 -1.230469 L 6.570312 -1.230469 C 5.941406 -1.230469 5.609375 -1.710938 5.609375 -2.398438 L 5.609375 -19.199219 C 5.609375 -20.308594 6.78125 -20.28125 6.78125 -20.878906 L 6.78125 -20.941406 C 6.78125 -21.179688 6.539062 -21.300781 6.179688 -21.300781 L 2.398438 -21.300781 C 2.039062 -21.300781 1.800781 -21.179688 1.800781 -20.941406 L 1.800781 -20.878906 C 1.800781 -20.28125 2.878906 -20.308594 2.878906 -19.199219 L 2.878906 -2.101562 C 2.878906 -1.050781 1.800781 -0.988281 1.800781 -0.421875 L 1.800781 -0.359375 C 1.800781 -0.148438 2.039062 0 2.398438 0 Z M 2.398438 0 "/></g></g></g><g fill="#000000" fill-opacity="1"><g transform="translate(145.781011, 178.861205)"><g><path d="M 2.398438 0 L 15.898438 0 C 16.378906 0 16.589844 -0.238281 16.679688 -0.691406 L 17.398438 -3.71875 C 17.460938 -4.050781 17.308594 -4.320312 17.039062 -4.320312 L 16.859375 -4.320312 C 15.808594 -4.320312 15.300781 -1.230469 13.710938 -1.230469 L 6.660156 -1.230469 C 5.910156 -1.230469 5.550781 -1.828125 5.550781 -2.519531 L 5.578125 -10.289062 L 11.039062 -10.289062 C 12.179688 -10.289062 12.148438 -8.578125 12.78125 -8.578125 L 12.898438 -8.578125 C 13.140625 -8.578125 13.289062 -8.789062 13.289062 -9.089844 L 13.289062 -12.78125 C 13.289062 -13.109375 13.140625 -13.289062 12.898438 -13.289062 L 12.78125 -13.289062 C 12.148438 -13.289062 12.179688 -11.519531 11.039062 -11.519531 L 5.578125 -11.519531 L 5.578125 -19.050781 C 5.578125 -19.769531 5.878906 -20.070312 6.421875 -20.070312 L 12.78125 -20.070312 C 14.339844 -20.070312 15.058594 -17.070312 15.988281 -17.070312 L 16.140625 -17.070312 C 16.441406 -17.070312 16.589844 -17.25 16.5 -17.671875 L 15.78125 -20.640625 C 15.691406 -21.058594 15.511719 -21.300781 15.03125 -21.300781 L 2.308594 -21.300781 C 1.980469 -21.300781 1.769531 -21.179688 1.769531 -20.96875 L 1.769531 -20.878906 C 1.769531 -20.339844 2.878906 -20.308594 2.878906 -19.171875 L 2.878906 -2.128906 C 2.878906 -0.988281 1.769531 -0.988281 1.769531 -0.421875 L 1.769531 -0.359375 C 1.769531 -0.121094 2.039062 0 2.398438 0 Z M 2.398438 0 "/></g></g></g></svg>